<svg viewBox="0 0 128 128" width="100%" height="100%" xmlns="http://www.w3.org/2000/svg">
  <rect width="128" height="128" rx="28" fill="#1C1B22" stroke="#E76F51" stroke-width="2" />
  <g transform="translate(24, 20)">
    <!-- Steam -->
    <path d="M48 -2 C48 -2, 54 8, 44 14 C34 20, 48 30, 48 30" fill="none" stroke="#F4A261" stroke-width="5" stroke-linecap="round" />
    <path d="M36 4 C36 4, 42 12, 34 18 C26 24, 38 32, 38 32" fill="none" stroke="#E76F51" stroke-width="5" stroke-linecap="round" />
    <!-- Cup -->
    <path d="M12,48 L68,48 C68,48 72,72 40,72 C8,72 12,48 12,48 Z" fill="#2A9D8F" />
    <!-- Handle -->
    <path d="M66,52 C76,52 76,64 66,66" fill="none" stroke="#2A9D8F" stroke-width="6" stroke-linecap="round" />
    <!-- Plate -->
    <path d="M6,78 L74,78 C80,78 80,82 74,82 L6,82 C0,82 0,78 6,78 Z" fill="#E76F51" />
  </g>
</svg>
