<svg viewBox="0 0 128 128" width="100%" height="100%" xmlns="http://www.w3.org/2000/svg">
  <defs>
    <linearGradient id="swift-grad" x1="0%" y1="0%" x2="100%" y2="100%">
      <stop offset="0%" stop-color="#FF5E3A" />
      <stop offset="100%" stop-color="#FF2A68" />
    </linearGradient>
  </defs>
  <rect width="128" height="128" rx="28" fill="url(#swift-grad)" />
  <path d="M102.3,87.6 C87.3,101.4 65.5,103.5 50.1,96.6 C46.7,95.1 46.1,91.8 49.3,90.2 C57.8,85.9 65.8,79.5 70.9,71.2 C74.2,65.8 74.4,59.3 71.3,53.8 C69.1,49.8 65.1,47.3 61.1,48.1 C57.4,48.8 54.3,51.8 51.5,54.6 C43.2,63.1 36.8,73.6 28.5,82.8 C25.8,85.8 21.6,83.8 23.3,80.1 C29.4,66.8 38.6,54.8 49.6,44.9 C55.3,39.8 61.6,35.4 69.1,33.5 C72.8,32.6 75.9,34.5 75.1,38.3 C74.1,43.2 70.7,47.4 67.8,51.4 C65.5,54.6 63.4,57.9 63.4,61.9 C63.4,67.6 69.1,72.3 74.7,73.2 C85.6,75.0 95.8,68.9 101.1,59.2 C102.8,56.1 106.3,57.7 105.1,60.9 C100.8,71.7 106.8,81.4 102.3,87.6 Z" fill="#FFFFFF" />
</svg>
